<svg id="svg" version="1.1" xmlns="http://www.w3.org/2000/svg" xmlns:xlink="http://www.w3.org/1999/xlink" width="400" height="400" viewBox="0, 0, 400,400"><g id="svgg"><path id="path0" d="M191.211 34.391 C 113.633 39.657,61.393 115.252,85.995 186.645 C 89.231 196.036,105.997 230.221,112.196 240.067 C 112.728 240.911,115.367 245.570,118.061 250.420 C 120.756 255.270,125.415 263.092,128.417 267.803 C 131.418 272.513,135.278 278.652,136.995 281.445 C 145.892 295.917,168.155 328.631,179.927 344.531 C 182.074 347.432,185.269 351.914,187.027 354.492 C 193.160 363.488,194.692 364.950,198.538 365.477 C 204.041 366.231,205.310 364.769,232.502 326.367 C 236.914 320.137,242.595 311.875,245.127 308.008 C 256.747 290.259,261.456 282.960,264.911 277.344 C 266.959 274.014,270.880 267.686,273.624 263.281 C 289.576 237.676,308.842 200.090,314.070 184.375 C 320.650 164.593,321.522 147.534,316.993 127.144 C 304.213 69.601,250.964 30.335,191.211 34.391 M215.540 46.428 C 259.727 53.290,294.044 83.921,304.658 125.977 C 313.079 159.343,307.371 181.090,275.488 237.109 C 265.891 253.972,265.232 255.109,261.788 260.742 C 252.391 276.114,243.860 289.144,226.623 314.453 C 221.208 322.403,213.463 333.328,208.206 340.430 C 205.502 344.082,202.448 348.256,201.417 349.705 L 199.544 352.339 197.756 349.728 C 196.772 348.291,193.477 343.766,190.432 339.671 C 157.862 295.871,120.566 234.988,101.641 194.727 C 88.668 167.127,87.734 141.099,98.718 113.281 C 104.852 97.747,110.413 89.144,121.459 78.101 C 141.038 58.528,160.768 49.139,189.844 45.560 C 193.716 45.083,210.541 45.651,215.540 46.428 M189.686 71.539 C 165.676 74.620,143.512 88.437,130.055 108.714 C 109.151 140.214,112.697 184.036,138.307 210.690 C 184.234 258.487,262.373 238.665,279.883 174.775 C 295.115 119.201,247.042 64.179,189.686 71.539 " stroke="none" fill="#074c81" fill-rule="evenodd"></path><path id="path1" d="M0.000 200.000 L 0.000 400.000 200.000 400.000 L 400.000 400.000 400.000 200.000 L 400.000 0.000 200.000 0.000 L 0.000 0.000 0.000 200.000 M211.827 34.564 C 265.389 40.248,307.218 77.977,317.749 130.103 C 321.671 149.517,320.428 166.498,313.648 186.133 C 308.653 200.600,288.626 239.541,274.876 261.523 C 272.726 264.961,268.296 272.080,265.031 277.344 C 259.663 285.999,248.880 302.704,242.552 312.169 C 237.402 319.871,216.988 348.512,212.907 353.760 C 211.716 355.291,209.655 358.049,208.327 359.889 C 201.899 368.796,196.106 367.904,188.493 356.836 C 184.197 350.589,180.430 345.298,178.482 342.773 C 170.464 332.381,147.122 297.868,134.386 277.574 C 131.003 272.184,126.954 265.752,125.388 263.281 C 123.822 260.811,121.230 256.416,119.628 253.516 C 118.026 250.615,114.825 244.902,112.515 240.820 C 86.827 195.429,79.922 176.327,79.897 150.586 C 79.829 81.577,141.745 27.126,211.827 34.564 M190.234 45.721 C 175.451 47.145,157.215 52.600,146.298 58.863 C 97.541 86.838,78.311 143.906,101.050 193.137 C 113.843 220.833,138.888 264.399,159.564 294.922 C 162.402 299.111,167.614 306.846,171.146 312.109 C 178.088 322.454,184.783 331.907,192.587 342.383 C 195.308 346.035,197.957 349.680,198.474 350.483 C 199.608 352.244,199.655 352.252,200.504 350.815 C 200.873 350.189,203.738 346.214,206.869 341.981 C 225.840 316.333,255.868 271.249,267.090 251.563 C 290.250 210.934,297.765 195.950,303.135 179.688 C 318.418 133.411,294.518 79.312,249.023 57.199 C 230.486 48.189,208.722 43.940,190.234 45.721 M207.227 71.114 C 264.087 76.003,299.313 137.394,274.822 188.917 C 241.271 259.501,138.262 250.635,118.922 175.498 C 104.556 119.690,149.825 66.179,207.227 71.114 " stroke="none" fill="#f4f3f3" fill-rule="evenodd"></path><path id="path2" d="M277.539 78.125 C 278.597 79.199,279.551 80.078,279.658 80.078 C 279.766 80.078,278.988 79.199,277.930 78.125 C 276.872 77.051,275.918 76.172,275.811 76.172 C 275.703 76.172,276.481 77.051,277.539 78.125 M91.147 151.953 C 91.147 153.564,91.216 154.224,91.300 153.418 C 91.384 152.612,91.384 151.294,91.300 150.488 C 91.216 149.683,91.147 150.342,91.147 151.953 " stroke="none" fill="#989b9d" fill-rule="evenodd"></path><path id="path3" d="M286.133 70.313 C 286.972 71.172,287.746 71.875,287.854 71.875 C 287.961 71.875,287.363 71.172,286.523 70.313 C 285.684 69.453,284.910 68.750,284.802 68.750 C 284.695 68.750,285.294 69.453,286.133 70.313 M199.121 70.979 C 199.604 71.072,200.396 71.072,200.879 70.979 C 201.362 70.886,200.967 70.810,200.000 70.810 C 199.033 70.810,198.638 70.886,199.121 70.979 M307.903 155.469 C 307.903 156.221,307.984 156.528,308.082 156.152 C 308.180 155.776,308.180 155.161,308.082 154.785 C 307.984 154.409,307.903 154.717,307.903 155.469 M197.178 237.396 C 198.097 237.478,199.503 237.477,200.303 237.393 C 201.103 237.309,200.352 237.242,198.633 237.243 C 196.914 237.245,196.260 237.313,197.178 237.396 " stroke="none" fill="#7c7c80" fill-rule="evenodd"></path><path id="path4" d="" stroke="none" fill="#7e8484" fill-rule="evenodd"></path></g></svg>